<svg xmlns="http://www.w3.org/2000/svg" width="29.6" height="29.6" viewBox="0 0 29.6 29.6">
  <g id="Group_26509" data-name="Group 26509" transform="translate(-5 -5)">
    <g id="Group_26508" data-name="Group 26508" transform="translate(5 5)">
      <path id="Path_18332" data-name="Path 18332" d="M19.8,5A14.8,14.8,0,1,0,34.6,19.8,14.8,14.8,0,0,0,19.8,5Zm-.663,4.955a.661.661,0,1,1,1.321,0v8.832a.661.661,0,1,1-1.321,0ZM19.8,30a9.851,9.851,0,0,1-9.874-9.806,9.731,9.731,0,0,1,3.786-7.722.684.684,0,0,1,.956.115.673.673,0,0,1-.116.95,8.39,8.39,0,0,0-3.265,6.657,8.511,8.511,0,0,0,17.022,0,8.391,8.391,0,0,0-3.25-6.646.674.674,0,0,1-.114-.95.684.684,0,0,1,.956-.113,9.733,9.733,0,0,1,3.769,7.708A9.85,9.85,0,0,1,19.8,30Z" transform="translate(-5 -5)" fill="#fff"/>
    </g>
  </g>
</svg>
